<svg xmlns="http://www.w3.org/2000/svg" viewBox="0 0 250.46 82.5">
  <defs>
    <style>
      .cls-1 {
        fill: #151515;
      }
    </style>
  </defs>
  <g id="Layer_2" data-name="Layer 2">
    <g id="Logo">
      <path class="cls-1" d="M153.41,82.5H173.3V0H153.41ZM118.36,59A5.34,5.34,0,0,1,113,64.36H101.45A5.34,5.34,0,0,1,96.12,59V25.74H76.23v35C76.23,75,85.37,82.5,98.88,82.5h19.48c12.44,0,19.89-9,19.89-21.81V25.74H118.36Zm112.2-33.28V59a5.33,5.33,0,0,1-5.32,5.34H213.66A5.34,5.34,0,0,1,208.33,59V25.74H188.44v35c0,14.28,9.14,21.81,22.65,21.81h19.48c12.44,0,19.89-9,19.89-21.81V25.74Zm-191.19,0H26.61A15.35,15.35,0,0,0,19.88,27V0H0V82.5H19.88V49.21a5.34,5.34,0,0,1,5.34-5.33H36.79a5.32,5.32,0,0,1,5.33,5.33V82.5H62V46.62C62,31.55,52,25.74,39.37,25.74Z"/>
    </g>
  </g>
</svg>
